PathFileType	4	(X/Y/Z)	C:/Users/opensim2020/Desktop/walking_exp_matlab/subject01_walking04_straight_02.trc	
DataRate	CameraRate	NumFrames	NumMarkers	Units	OrigDataRate	OrigDataStartFrame	OrigNumFrames	
100.00	100.00	4	43	mm	100.00	1450	261	
Frame#	Time	LFHD			RFHD			LBHD			RBHD			C7			T10			CLAV			STRN			RBAK			LSHO			LUPA			LELB			LFRM			LWRA			LWRB			LFIN			RSHO			RUPA			RELB			RFRM			RWRA			RWRB			RFIN			LASI			RASI			LPSI			RPSI			LTHI			LKNE			LTIB			LANK			LHEE			LTOE			RTHI			RKNE			RTIB			RANK			RHEE			RTOE			*39			*40			*41			*42			
		X1	Y1	Z1	X2	Y2	Z2	X3	Y3	Z3	X4	Y4	Z4	X5	Y5	Z5	X6	Y6	Z6	X7	Y7	Z7	X8	Y8	Z8	X9	Y9	Z9	X10	Y10	Z10	X11	Y11	Z11	X12	Y12	Z12	X13	Y13	Z13	X14	Y14	Z14	X15	Y15	Z15	X16	Y16	Z16	X17	Y17	Z17	X18	Y18	Z18	X19	Y19	Z19	X20	Y20	Z20	X21	Y21	Z21	X22	Y22	Z22	X23	Y23	Z23	X24	Y24	Z24	X25	Y25	Z25	X26	Y26	Z26	X27	Y27	Z27	X28	Y28	Z28	X29	Y29	Z29	X30	Y30	Z30	X31	Y31	Z31	X32	Y32	Z32	X33	Y33	Z33	X34	Y34	Z34	X35	Y35	Z35	X36	Y36	Z36	X37	Y37	Z37	X38	Y38	Z38	X39	Y39	Z39	X40	Y40	Z40	X41	Y41	Z41	X42	Y42	Z42	X43	Y43	Z43	

33	0.320	1410.11865	1466.94812	1679.65918	1299.19458	1441.30298	1686.44604	1388.19360	1580.36255	1630.58911	1270.90930	1557.69055	1637.02795	1341.00037	1614.30371	1443.32751	1328.83716	1652.95569	1150.78357	1356.42371	1472.57336	1373.57605	1365.08765	1431.26758	1218.99255	1258.18787	1663.37268	1249.77734	1509.94592	1551.44250	1401.07678	1590.45557	1605.83643	1223.50671	1595.00427	1635.26941	1074.05566	1624.76746	1597.78772	965.21338	1612.62109	1515.19678	852.28729	1633.09851	1571.39819	845.16669	1644.87097	1521.59595	777.57196	1199.64941	1518.72900	1401.61060	1089.80688	1566.62817	1204.79236	1085.22009	1572.95325	1078.25488	1059.71643	1532.04419	962.47003	1088.53174	1440.95435	856.06860	1045.29248	1480.90356	851.74432	1052.23535	1434.99988	779.95746	1452.07288	1494.67896	938.09418	1236.52026	1472.24072	939.44794	1384.16711	1675.35242	960.01227	1239.36572	1658.69641	963.72620	1539.76611	1495.88660	619.11218	1539.72534	1491.54077	486.41684	1527.33618	1636.23633	375.52628	1457.71497	1791.29688	230.44814	1392.78467	1828.51208	235.85495	1485.26013	1733.61914	97.81723	1198.08386	1526.81519	605.74146	1238.18982	1520.31836	449.74011	1241.34497	1573.62415	281.13986	1306.83374	1602.21143	81.78077	1355.70398	1654.58850	46.83684	1317.83093	1462.84351	43.07275	1320.20776	1456.55200	1719.64954	-3101.93188	1973.04248	1023.41333	-3140.71558	2012.45996	1021.88367			 
34	0.330	1411.08240	1457.22791	1679.62891	1300.24207	1431.54468	1686.44971	1389.08691	1570.71057	1630.80383	1271.76978	1547.93884	1637.34033	1342.11316	1605.09546	1443.59668	1330.22327	1644.45435	1151.18640	1357.16516	1463.41089	1373.65186	1365.42151	1422.41272	1218.88696	1259.43445	1654.81665	1250.19495	1510.95496	1541.67358	1401.26379	1591.11768	1596.91479	1223.68738	1594.29248	1627.49133	1074.46863	1623.01782	1592.88025	964.44733	1610.03430	1513.53857	849.37634	1630.96094	1569.96167	843.96411	1641.79260	1522.05383	774.65289	1200.61743	1510.21094	1401.91528	1090.64990	1557.59644	1204.94702	1085.93970	1562.57532	1078.09229	1060.70850	1519.30151	962.99719	1090.34631	1426.01831	858.71338	1047.61279	1465.05334	853.37146	1054.00439	1417.84229	782.92810	1452.54590	1485.36975	938.97937	1236.66333	1464.76770	939.28619	1386.28894	1666.59131	960.65613	1241.43152	1650.97852	964.03802	1541.08740	1481.13513	621.05750	1540.58557	1474.45752	488.46088	1529.00256	1616.20264	373.59872	1460.88464	1767.74243	224.19406	1396.03296	1805.69324	227.48932	1489.99390	1704.66455	94.94112	1199.16223	1522.11304	605.50623	1238.98413	1516.93518	449.36575	1242.01648	1571.59119	281.17010	1307.12817	1601.89221	82.03856	1356.04529	1653.89941	47.72880	1318.16370	1462.58203	42.95766	1321.21912	1446.71143	1719.62024	-3101.98901	1973.10400	1023.56134	-3140.77075	2012.49475	1021.93628			 
35	0.340	1412.09766	1447.50098	1679.54700	1301.28064	1421.77039	1686.54822	1390.06934	1561.10095	1631.04541	1272.74878	1538.25183	1637.61438	1343.27026	1595.87292	1443.85168	1331.57263	1635.96667	1151.63513	1357.59888	1454.43140	1373.50073	1365.72595	1413.55957	1218.81555	1260.67554	1646.19897	1250.54932	1511.97412	1531.92065	1401.44885	1591.64746	1587.97095	1223.74744	1593.71008	1619.56311	1074.83984	1621.68433	1587.81494	964.02692	1607.55579	1511.79858	846.66370	1628.72717	1568.25708	842.77448	1638.73792	1522.37781	771.91431	1201.33508	1501.57666	1401.97144	1091.53674	1548.81482	1205.04688	1086.43848	1552.38879	1078.04480	1061.82751	1506.73352	963.53107	1091.74597	1411.12952	861.58575	1048.49255	1450.47571	855.27509	1055.75818	1400.99902	786.02722	1453.16443	1476.21423	939.80341	1237.15637	1457.17944	939.18658	1388.27979	1657.86108	961.17297	1243.75732	1642.94373	964.28595	1542.43530	1466.62280	623.09430	1541.30823	1457.63416	490.55304	1531.60010	1596.74023	372.25549	1464.03870	1743.51575	217.18538	1399.17432	1781.97449	218.08719	1493.59045	1673.37097	90.55901	1200.27710	1517.38977	605.31409	1239.85339	1513.36609	449.02750	1242.70789	1569.41064	281.27554	1307.45044	1601.48401	82.34817	1356.02869	1654.02673	47.83707	1318.42932	1462.29004	43.36400	1322.15015	1436.93555	1719.55090	-3101.84863	1973.09680	1023.42981	-3140.60938	2012.50830	1021.89594			 
36	0.350	1413.08557	1437.74329	1679.39453	1302.28687	1412.06641	1686.38477	1391.06458	1551.46301	1631.24988	1273.82068	1528.59827	1637.77991	1344.45081	1586.63672	1444.10486	1332.90393	1627.45056	1152.05176	1358.43481	1445.27295	1373.53711	1366.14099	1404.71851	1218.72656	1261.89258	1637.61902	1250.93213	1512.88098	1522.09729	1401.49426	1591.96667	1578.87219	1223.58350	1593.13416	1611.55176	1075.18274	1620.26331	1582.60400	963.59552	1605.31677	1509.95129	844.21094	1626.97180	1566.39575	841.96692	1635.88220	1522.58875	769.39392	1202.03589	1493.06787	1402.12573	1092.24902	1540.58643	1205.27051	1087.07178	1542.28430	1077.92969	1062.85254	1494.28345	964.16132	1093.52051	1396.36011	864.51862	1050.61047	1434.91052	857.14734	1057.36816	1384.44458	789.30267	1453.88245	1467.12354	940.56769	1237.69739	1449.54224	938.79956	1390.07117	1649.17627	961.57349	1245.08752	1635.41724	964.39258	1543.80713	1452.17773	625.16156	1541.97559	1441.10315	492.67554	1533.13049	1576.83447	369.63602	1467.10791	1718.61084	209.28499	1402.29590	1757.38062	207.81715	1499.51135	1644.20215	87.49214	1201.25928	1512.72644	604.95837	1240.64319	1509.86401	448.64804	1243.21948	1567.17139	281.53928	1307.77478	1601.03955	82.66493	1356.34058	1653.80713	48.46847	1318.70007	1462.07861	43.25877	1323.33997	1427.05713	1719.55200	-3101.84180	1973.09521	1023.41791	-3140.68530	2012.53979	1021.92126			 
